<?xml version="1.0" encoding="utf-8"?>
<!-- Generator: Adobe Illustrator 16.0.3, SVG Export Plug-In . SVG Version: 6.00 Build 0)  -->
<!DOCTYPE svg PUBLIC "-//W3C//DTD SVG 1.1//EN" "http://www.w3.org/Graphics/SVG/1.1/DTD/svg11.dtd">
<svg version="1.1" id="Layer_1" xmlns="http://www.w3.org/2000/svg" xmlns:xlink="http://www.w3.org/1999/xlink" x="0px" y="0px"
	 width="32px" height="32px" viewBox="234 234.781 32 32" enable-background="new 234 234.781 32 32" xml:space="preserve">
<path fill="#979797" d="M250,235.287c8.339,0,15.097,6.938,15.097,15.495c0,8.557-6.758,15.494-15.097,15.494
	c-8.338,0-15.098-6.938-15.098-15.494C234.902,242.224,241.662,235.287,250,235.287z M250,236.948
	c-7.445,0-13.48,6.193-13.48,13.833c0,7.641,6.035,13.834,13.48,13.834c7.445,0,13.48-6.193,13.48-13.834
	C263.48,243.141,257.445,236.948,250,236.948z M250,244.196c0.446,0,0.81,0.372,0.81,0.83v4.98h4.852
	c0.447,0,0.809,0.372,0.809,0.83c0,0.459-0.361,0.832-0.809,0.832h-4.854l0.002,4.979c0,0.459-0.364,0.832-0.81,0.832
	c-0.447,0-0.809-0.373-0.809-0.832v-4.979h-4.853c-0.447,0-0.809-0.373-0.809-0.832c0-0.458,0.362-0.83,0.809-0.83h4.853v-4.98
	C249.192,244.568,249.553,244.196,250,244.196z"/>
</svg>
