<svg xmlns="http://www.w3.org/2000/svg" viewBox="0 0 24 24" id="basket">
  <path fill="#aff9f7" d="M20,11.25H4a.749.749,0,0,0-.744.843l.781,6.248A2.755,2.755,0,0,0,6.766,20.75H17.234a2.755,2.755,0,0,0,2.729-2.409l.781-6.248A.748.748,0,0,0,20,11.25Z"></path>
  <path fill="#13e4ea" d="M4,8.75a.75.75,0,0,1-.6-1.2l3-4a.75.75,0,1,1,1.2.9l-3,4A.749.749,0,0,1,4,8.75Z"></path>
  <path fill="#fff" d="M12 18.25a.75.75 0 01-.75-.75v-3a.75.75 0 011.5 0v3A.75.75 0 0112 18.25zM15 17.75a.75.75 0 01-.75-.75V15a.75.75 0 011.5 0v2A.75.75 0 0115 17.75z"></path>
  <path fill="#13e4ea" d="M20,8.75a.749.749,0,0,1-.6-.3l-3-4a.75.75,0,1,1,1.2-.9l3,4a.75.75,0,0,1-.6,1.2Z"></path>
  <path fill="#fff" d="M9,17.75A.75.75,0,0,1,8.25,17V15a.75.75,0,0,1,1.5,0v2A.75.75,0,0,1,9,17.75Z"></path>
  <path fill="#13e4ea" d="M20,7.25H4a2.75,2.75,0,0,0,0,5.5H20a2.75,2.75,0,0,0,0-5.5Z"></path>
  <path fill="#a0f9f4" d="M20,11.25H4a.749.749,0,0,0-.744.843l.781,6.248A2.755,2.755,0,0,0,6.766,20.75H17.234a2.755,2.755,0,0,0,2.729-2.409l.781-6.248A.748.748,0,0,0,20,11.25Z"></path>
  <path fill="#13e4ea" d="M4,8.75a.75.75,0,0,1-.6-1.2l3-4a.75.75,0,1,1,1.2.9l-3,4A.749.749,0,0,1,4,8.75Z"></path>
  <path fill="#fff" d="M12 18.25a.75.75 0 01-.75-.75v-3a.75.75 0 011.5 0v3A.75.75 0 0112 18.25zM15 17.75a.75.75 0 01-.75-.75V15a.75.75 0 011.5 0v2A.75.75 0 0115 17.75z"></path>
  <path fill="#13e4ea" d="M20,8.75a.749.749,0,0,1-.6-.3l-3-4a.75.75,0,1,1,1.2-.9l3,4a.75.75,0,0,1-.6,1.2Z"></path>
  <path fill="#fff" d="M9,17.75A.75.75,0,0,1,8.25,17V15a.75.75,0,0,1,1.5,0v2A.75.75,0,0,1,9,17.75Z"></path>
  <path fill="#13e4ea" d="M20,7.25H4a2.75,2.75,0,0,0,0,5.5H20a2.75,2.75,0,0,0,0-5.5Z"></path>
  <line x1="4" x2="7" y1="8" y2="4" fill="none" stroke="#007da1" stroke-linecap="round" stroke-linejoin="round" stroke-width="1.5"></line>
  <line x1="20" x2="17" y1="8" y2="4" fill="none" stroke="#007da1" stroke-linecap="round" stroke-linejoin="round" stroke-width="1.5"></line>
  <rect width="20" height="4" x="2" y="8" fill="none" stroke="#007da1" stroke-linecap="round" stroke-linejoin="round" stroke-width="1.5" rx="2"></rect>
  <path fill="none" stroke="#007da1" stroke-linecap="round" stroke-linejoin="round" stroke-width="1.5" d="M20,12H4l.25,2,.53,4.25A2.007,2.007,0,0,0,6.77,20H17.23a2.007,2.007,0,0,0,1.99-1.75L19.75,14"></path>
</svg>
