<?xml version="1.0" encoding="utf-8"?>
<!-- Generator: Adobe Illustrator 16.0.3, SVG Export Plug-In . SVG Version: 6.00 Build 0)  -->
<!DOCTYPE svg PUBLIC "-//W3C//DTD SVG 1.1//EN" "http://www.w3.org/Graphics/SVG/1.1/DTD/svg11.dtd">
<svg version="1.1" id="Layer_1" xmlns="http://www.w3.org/2000/svg" xmlns:xlink="http://www.w3.org/1999/xlink" x="0px" y="0px"
	 width="32px" height="32px" viewBox="27.021 525.074 32 32" enable-background="new 27.021 525.074 32 32" xml:space="preserve">
<path d="M41.728,554.01c-8.583,0-14.424-6.379-14.424-14.424c0-7.967,6.457-14.424,14.424-14.424
	c7.966,0,14.424,6.457,14.424,14.424c0,2.966-0.895,5.723-2.43,8.014c0.111,0.101,3.426,3.327,4.313,4.264
	c0.923,0.977,1.67,3.015,0,4.498c-1.567,1.389-3.233,0.691-4.06,0c-0.342-0.287-2.02-2.096-2.634-2.734
	c-0.616-0.638-0.916-1.171-0.467-1.599c0.449-0.427,1.063-0.037,1.243,0.156c0.632,0.681,2.29,2.323,2.638,2.657
	c0.54,0.516,1.521,1.085,2.293,0.346c0.773-0.739,0.202-1.687-0.385-2.348c-0.357-0.4-3.832-3.785-3.957-3.899
	C50.062,552.043,46.125,554.01,41.728,554.01z M41.728,552.346c7.047,0,12.76-5.713,12.76-12.76s-5.713-12.76-12.76-12.76
	s-12.759,5.713-12.759,12.76C28.969,546.52,33.685,552.346,41.728,552.346z M44.241,530.208c0.445,0.114,0.714,0.566,0.602,1.011
	c-0.113,0.447-0.566,0.715-1.011,0.604c-0.007-0.002-0.015-0.004-0.021-0.007c-4.291-1.15-8.702,1.396-9.852,5.688
	c-1.15,4.292,1.397,8.703,5.688,9.854c4.291,1.149,8.703-1.398,9.852-5.689c0.638-2.379,0.152-4.869-1.273-6.824
	c-0.289-0.397-0.614-0.767-0.97-1.105c-0.336-0.312-0.353-0.839-0.04-1.176c0.315-0.335,0.84-0.352,1.176-0.039
	c0.003,0.003,0.005,0.005,0.008,0.008c0.43,0.408,0.822,0.854,1.17,1.331c1.718,2.357,2.305,5.366,1.536,8.237
	c-1.388,5.178-6.711,8.253-11.89,6.864c-5.18-1.388-8.253-6.711-6.865-11.891C33.738,531.894,39.062,528.82,44.241,530.208z"/>
</svg>
