<?xml version="1.0" encoding="utf-8"?>
<!-- Generator: Adobe Illustrator 16.0.3, SVG Export Plug-In . SVG Version: 6.00 Build 0)  -->
<!DOCTYPE svg PUBLIC "-//W3C//DTD SVG 1.1//EN" "http://www.w3.org/Graphics/SVG/1.1/DTD/svg11.dtd">
<svg version="1.1" id="Layer_1" xmlns="http://www.w3.org/2000/svg" xmlns:xlink="http://www.w3.org/1999/xlink" x="0px" y="0px"
	 width="180px" height="56px" viewBox="310 372 180 56" enable-background="new 310 372 180 56" xml:space="preserve">
<g id="SVGRepo_bgCarrier">
</g>
<g id="SVGRepo_tracerCarrier">
</g>
<g id="SVGRepo_iconCarrier">
	<g transform="scale(4.00216 4.0011)">
		<path fill="#FFFFFF" d="M121.859,104.917c0,0.696-0.564,1.261-1.261,1.261c0,0,0,0-0.001,0H79.294
			c-0.697,0-1.263-0.564-1.264-1.261V94.863c0.001-0.697,0.566-1.262,1.264-1.262h41.303c0.697,0,1.262,0.565,1.262,1.262
			c0,0,0,0,0,0V104.917L121.859,104.917z"/>
		<path fill="#A6A6A6" d="M120.598,106.472H79.294c-0.859,0-1.555-0.696-1.557-1.554V94.863c0.001-0.859,0.697-1.555,1.557-1.556
			h41.303c0.859,0.001,1.555,0.697,1.557,1.556v10.054C122.155,105.775,121.456,106.472,120.598,106.472L120.598,106.472z"/>
		<path d="M121.859,104.917c0,0.696-0.564,1.261-1.261,1.261c0,0,0,0-0.001,0H79.294c-0.697,0-1.263-0.564-1.264-1.261V94.863
			c0.001-0.697,0.566-1.262,1.264-1.262h41.303c0.697,0,1.262,0.565,1.262,1.262c0,0,0,0,0,0V104.917L121.859,104.917z"/>
		<path fill="#FFFFFF" d="M87.655,99.82c-0.009-1.061,0.869-1.577,0.909-1.601c-0.497-0.725-1.268-0.824-1.539-0.832
			c-0.648-0.068-1.276,0.387-1.606,0.387c-0.336,0-0.845-0.381-1.392-0.37c-0.704,0.011-1.364,0.419-1.725,1.052
			c-0.746,1.291-0.19,3.189,0.525,4.233c0.358,0.512,0.775,1.082,1.322,1.062c0.535-0.022,0.735-0.34,1.38-0.34
			c0.64,0,0.827,0.34,1.385,0.328c0.574-0.009,0.936-0.514,1.281-1.029c0.413-0.586,0.579-1.163,0.586-1.193
			C88.768,101.512,87.667,101.092,87.655,99.82L87.655,99.82z M86.602,96.7c0.288-0.36,0.484-0.849,0.43-1.346
			c-0.416,0.019-0.937,0.288-1.237,0.64c-0.265,0.31-0.502,0.818-0.441,1.297C85.821,97.325,86.302,97.054,86.602,96.7z"/>
		
			<linearGradient id="SVGID_1_" gradientUnits="userSpaceOnUse" x1="29.2736" y1="137.256" x2="29.2736" y2="145.2616" gradientTransform="matrix(23.7359 0 0 -23.7231 -584.5203 3362.6375)">
			<stop  offset="0" style="stop-color:#1A1A1A;stop-opacity:0.1"/>
			<stop  offset="0.123" style="stop-color:#212121;stop-opacity:0.151"/>
			<stop  offset="0.308" style="stop-color:#353535;stop-opacity:0.227"/>
			<stop  offset="0.532" style="stop-color:#575757;stop-opacity:0.318"/>
			<stop  offset="0.783" style="stop-color:#858585;stop-opacity:0.421"/>
			<stop  offset="1" style="stop-color:#B3B3B3;stop-opacity:0.51"/>
		</linearGradient>
		<path fill="url(#SVGID_1_)" d="M120.598,93.308H98.474l8.666,13.164h13.458c0.859,0,1.555-0.696,1.557-1.555V94.863
			C122.153,94.004,121.457,93.309,120.598,93.308z"/>
		<g>
			<path fill="#FFFFFF" d="M95.403,103.678h-0.747l-0.41-1.287h-1.423l-0.39,1.287h-0.728l1.41-4.381h0.871L95.403,103.678z
				 M94.123,101.852l-0.37-1.144c-0.039-0.117-0.113-0.392-0.221-0.825h-0.013c-0.043,0.186-0.113,0.462-0.208,0.825l-0.364,1.144
				H94.123z M99.024,102.06c0,0.538-0.146,0.962-0.438,1.274c-0.261,0.278-0.586,0.416-0.974,0.416
				c-0.418,0-0.719-0.149-0.902-0.448v1.658h-0.702v-3.402c0-0.338-0.009-0.683-0.026-1.038H96.6l0.039,0.5h0.013
				c0.234-0.377,0.589-0.566,1.066-0.566c0.373,0,0.684,0.147,0.933,0.442C98.899,101.191,99.024,101.579,99.024,102.06z
				 M98.309,102.086c0-0.307-0.069-0.561-0.208-0.761c-0.152-0.207-0.355-0.311-0.611-0.311c-0.173,0-0.331,0.058-0.471,0.172
				c-0.141,0.115-0.233,0.266-0.276,0.452c-0.019,0.07-0.03,0.142-0.033,0.214v0.527c0,0.229,0.071,0.423,0.211,0.582
				c0.141,0.158,0.324,0.237,0.549,0.237c0.264,0,0.47-0.103,0.617-0.305C98.235,102.688,98.309,102.42,98.309,102.086z
				 M102.657,102.06c0,0.538-0.146,0.962-0.438,1.274c-0.262,0.278-0.587,0.416-0.974,0.416c-0.419,0-0.719-0.149-0.902-0.448v1.658
				h-0.702v-3.402c0-0.338-0.009-0.683-0.026-1.038h0.617l0.039,0.5h0.014c0.234-0.377,0.589-0.566,1.066-0.566
				c0.372,0,0.683,0.147,0.933,0.442C102.533,101.191,102.657,101.579,102.657,102.06L102.657,102.06z M101.942,102.086
				c0-0.307-0.069-0.561-0.208-0.761c-0.152-0.207-0.355-0.311-0.61-0.311c-0.173,0-0.331,0.058-0.472,0.172
				c-0.141,0.115-0.233,0.266-0.276,0.452c-0.021,0.087-0.033,0.157-0.033,0.214v0.527c0,0.229,0.071,0.423,0.211,0.582
				c0.141,0.158,0.324,0.237,0.55,0.237c0.265,0,0.47-0.103,0.617-0.305C101.868,102.688,101.942,102.42,101.942,102.086z
				 M106.72,102.45c0,0.373-0.13,0.676-0.389,0.91c-0.285,0.256-0.683,0.384-1.193,0.384c-0.472,0-0.85-0.091-1.135-0.273
				l0.163-0.585c0.308,0.182,0.646,0.273,1.014,0.273c0.265,0,0.47-0.06,0.617-0.179c0.147-0.119,0.222-0.278,0.222-0.477
				c0-0.178-0.061-0.327-0.183-0.449c-0.121-0.121-0.322-0.234-0.604-0.337c-0.767-0.287-1.151-0.705-1.151-1.255
				c0-0.36,0.135-0.654,0.406-0.884c0.271-0.23,0.63-0.345,1.076-0.345c0.399,0,0.731,0.07,0.994,0.208l-0.176,0.572
				c-0.249-0.134-0.529-0.201-0.842-0.201c-0.248,0-0.442,0.061-0.581,0.182c-0.117,0.108-0.176,0.241-0.176,0.397
				c0,0.173,0.067,0.316,0.202,0.429c0.117,0.104,0.329,0.217,0.637,0.338c0.377,0.152,0.654,0.329,0.832,0.533
				C106.631,101.893,106.72,102.147,106.72,102.45L106.72,102.45z M109.046,101.046h-0.774v1.534c0,0.39,0.136,0.585,0.409,0.585
				c0.126,0,0.229-0.01,0.312-0.032l0.019,0.533c-0.138,0.052-0.32,0.078-0.546,0.078c-0.277,0-0.494-0.084-0.651-0.253
				c-0.155-0.169-0.234-0.453-0.234-0.852v-1.592h-0.461v-0.526h0.461V99.94l0.69-0.208v0.787h0.774V101.046L109.046,101.046z
				 M112.53,102.073c0,0.485-0.139,0.884-0.416,1.196c-0.29,0.321-0.675,0.481-1.157,0.481c-0.464,0-0.833-0.154-1.108-0.461
				c-0.275-0.308-0.413-0.695-0.413-1.163c0-0.489,0.142-0.89,0.426-1.202c0.284-0.312,0.667-0.468,1.148-0.468
				c0.463,0,0.836,0.154,1.118,0.462C112.396,101.215,112.53,101.6,112.53,102.073z M111.802,102.089
				c0-0.289-0.062-0.537-0.188-0.745c-0.147-0.251-0.358-0.376-0.631-0.376c-0.281,0-0.497,0.125-0.644,0.376
				c-0.125,0.207-0.188,0.46-0.188,0.759c0,0.289,0.063,0.538,0.188,0.745c0.152,0.251,0.364,0.377,0.638,0.377
				c0.268,0,0.478-0.128,0.631-0.382C111.738,102.629,111.802,102.379,111.802,102.089z M114.812,101.137
				c-0.073-0.013-0.147-0.02-0.221-0.02c-0.247,0-0.438,0.093-0.572,0.28c-0.117,0.165-0.175,0.373-0.175,0.624v1.657h-0.702v-2.164
				c0-0.332-0.006-0.663-0.02-0.994h0.611l0.026,0.604h0.019c0.075-0.208,0.191-0.375,0.351-0.501
				c0.146-0.11,0.325-0.169,0.508-0.169c0.065,0,0.123,0.005,0.176,0.013L114.812,101.137z M117.951,101.95
				c0.002,0.107-0.007,0.213-0.025,0.319h-2.106c0.008,0.312,0.11,0.551,0.305,0.716c0.178,0.146,0.407,0.22,0.689,0.22
				c0.311,0,0.596-0.049,0.852-0.149l0.11,0.487c-0.299,0.13-0.652,0.196-1.059,0.196c-0.49,0-0.875-0.144-1.154-0.432
				c-0.279-0.288-0.419-0.675-0.419-1.16c0-0.476,0.13-0.873,0.39-1.189c0.272-0.338,0.641-0.507,1.104-0.507
				c0.455,0,0.8,0.169,1.034,0.507C117.858,101.224,117.951,101.556,117.951,101.95L117.951,101.95z M117.281,101.767
				c0.005-0.208-0.041-0.387-0.136-0.539c-0.122-0.196-0.308-0.293-0.559-0.293c-0.229,0-0.417,0.095-0.559,0.287
				c-0.117,0.151-0.186,0.334-0.208,0.545L117.281,101.767L117.281,101.767z"/>
		</g>
		<g>
			<path fill="#FFFFFF" d="M92.621,97.749c-0.195,0-0.364-0.01-0.505-0.026v-2.118c0.197-0.03,0.395-0.045,0.594-0.045
				c0.805,0,1.175,0.396,1.175,1.042C93.885,97.347,93.448,97.749,92.621,97.749z M92.738,95.832c-0.109,0-0.201,0.007-0.278,0.022
				v1.61c0.041,0.007,0.121,0.01,0.233,0.01c0.527,0,0.827-0.3,0.827-0.862C93.521,96.11,93.25,95.832,92.738,95.832z
				 M95.041,97.765c-0.453,0-0.748-0.339-0.748-0.799c0-0.479,0.3-0.821,0.773-0.821c0.447,0,0.748,0.323,0.748,0.796
				C95.814,97.426,95.504,97.765,95.041,97.765z M95.054,96.397c-0.249,0-0.409,0.233-0.409,0.559c0,0.32,0.163,0.553,0.406,0.553
				c0.242,0,0.406-0.249,0.406-0.559C95.456,96.634,95.297,96.397,95.054,96.397L95.054,96.397z M98.401,96.177l-0.485,1.552h-0.316
				l-0.201-0.674c-0.05-0.165-0.091-0.332-0.125-0.501h-0.007c-0.025,0.169-0.074,0.339-0.125,0.501l-0.214,0.674h-0.32
				l-0.457-1.552h0.355l0.176,0.738c0.041,0.176,0.076,0.342,0.105,0.498h0.007c0.026-0.13,0.067-0.294,0.127-0.495l0.221-0.741
				h0.281l0.211,0.725c0.051,0.176,0.092,0.348,0.125,0.511h0.009c0.022-0.16,0.058-0.329,0.105-0.511l0.189-0.725L98.401,96.177z
				 M100.189,97.73h-0.345v-0.891c0-0.275-0.105-0.412-0.313-0.412c-0.205,0-0.345,0.176-0.345,0.38v0.923H98.84v-1.109
				c0-0.137-0.003-0.284-0.013-0.444h0.303l0.016,0.24h0.01c0.093-0.166,0.281-0.271,0.492-0.271c0.326,0,0.54,0.249,0.54,0.655
				L100.189,97.73L100.189,97.73z M101.14,97.73h-0.345v-2.265h0.345V97.73z M102.398,97.765c-0.453,0-0.748-0.339-0.748-0.799
				c0-0.479,0.3-0.821,0.773-0.821c0.448,0,0.748,0.323,0.748,0.796C103.171,97.426,102.861,97.765,102.398,97.765z M102.411,96.397
				c-0.249,0-0.409,0.233-0.409,0.559c0,0.32,0.164,0.553,0.406,0.553c0.243,0,0.406-0.249,0.406-0.559
				C102.813,96.634,102.654,96.397,102.411,96.397L102.411,96.397z M104.531,97.73l-0.025-0.179h-0.009
				c-0.105,0.144-0.259,0.214-0.454,0.214c-0.279,0-0.476-0.195-0.476-0.457c0-0.383,0.332-0.581,0.907-0.581v-0.029
				c0-0.204-0.108-0.307-0.322-0.307c-0.154,0-0.287,0.039-0.406,0.115l-0.07-0.227c0.143-0.09,0.322-0.134,0.532-0.134
				c0.406,0,0.611,0.214,0.611,0.642v0.572c0,0.157,0.007,0.278,0.022,0.371L104.531,97.73L104.531,97.73z M104.484,96.956
				c-0.383,0-0.576,0.093-0.576,0.313c0,0.163,0.1,0.243,0.237,0.243c0.176,0,0.339-0.134,0.339-0.316V96.956z M106.495,97.73
				l-0.016-0.249h-0.009c-0.099,0.188-0.266,0.284-0.499,0.284c-0.374,0-0.651-0.329-0.651-0.792c0-0.486,0.287-0.828,0.68-0.828
				c0.207,0,0.355,0.07,0.437,0.211h0.007v-0.891h0.345v1.847c0,0.15,0.004,0.291,0.013,0.418H106.495L106.495,97.73z
				 M106.444,96.816c0-0.217-0.144-0.403-0.364-0.403c-0.256,0-0.412,0.227-0.412,0.546c0,0.313,0.162,0.527,0.406,0.527
				c0.217,0,0.37-0.189,0.37-0.412V96.816L106.444,96.816z M108.979,97.765c-0.453,0-0.747-0.339-0.747-0.799
				c0-0.479,0.3-0.821,0.773-0.821c0.448,0,0.748,0.323,0.748,0.796C109.752,97.426,109.442,97.765,108.979,97.765L108.979,97.765z
				 M108.991,96.397c-0.249,0-0.408,0.233-0.408,0.559c0,0.32,0.163,0.553,0.405,0.553c0.243,0,0.406-0.249,0.406-0.559
				C109.394,96.634,109.235,96.397,108.991,96.397L108.991,96.397z M111.607,97.73h-0.345v-0.891c0-0.275-0.105-0.412-0.313-0.412
				c-0.204,0-0.345,0.176-0.345,0.38v0.923h-0.346v-1.109c0-0.137-0.003-0.284-0.013-0.444h0.304l0.016,0.24h0.01
				c0.093-0.166,0.281-0.272,0.492-0.272c0.326,0,0.54,0.249,0.54,0.655V97.73z M113.928,96.436h-0.379v0.754
				c0,0.192,0.066,0.288,0.201,0.288c0.061,0,0.112-0.007,0.153-0.016l0.01,0.262c-0.067,0.026-0.157,0.039-0.268,0.039
				c-0.272,0-0.435-0.15-0.435-0.543v-0.783h-0.226v-0.259h0.226v-0.284l0.339-0.103v0.387h0.379V96.436L113.928,96.436z
				 M115.754,97.73h-0.344v-0.885c0-0.278-0.105-0.418-0.313-0.418c-0.179,0-0.346,0.121-0.346,0.367v0.936h-0.345v-2.265h0.345
				v0.933h0.007c0.109-0.169,0.266-0.252,0.467-0.252c0.329,0,0.529,0.256,0.529,0.661V97.73z M117.626,97.036h-1.035
				c0.006,0.294,0.201,0.46,0.489,0.46c0.153,0,0.294-0.026,0.418-0.073l0.054,0.24c-0.147,0.064-0.32,0.096-0.521,0.096
				c-0.486,0-0.773-0.307-0.773-0.782c0-0.476,0.294-0.834,0.734-0.834c0.397,0,0.646,0.294,0.646,0.738
				C117.64,96.932,117.636,96.985,117.626,97.036z M117.309,96.79c0-0.24-0.12-0.409-0.341-0.409c-0.198,0-0.355,0.173-0.377,0.409
				H117.309L117.309,96.79z"/>
		</g>
	</g>
</g>
</svg>
