<?xml version="1.0" encoding="utf-8"?>
<!-- Generator: Adobe Illustrator 16.0.3, SVG Export Plug-In . SVG Version: 6.00 Build 0)  -->
<!DOCTYPE svg PUBLIC "-//W3C//DTD SVG 1.1//EN" "http://www.w3.org/Graphics/SVG/1.1/DTD/svg11.dtd">
<svg version="1.1" xmlns="http://www.w3.org/2000/svg" xmlns:xlink="http://www.w3.org/1999/xlink" x="0px" y="0px" width="40px"
	 height="40px" viewBox="230 230 40 40" enable-background="new 230 230 40 40" xml:space="preserve">
<g id="Layer_1" display="none">
	<g display="inline" opacity="0.33">
		<path id="Shape" fill="#96D7FF" d="M273.268,244.176c-0.684-4.648-4.189-8.381-8.802-9.354c-1.59-0.336-3.031-1.197-4.078-2.451
			c-3.377-3.984-8.709-5.734-13.788-4.527c-5.079,1.216-9.036,5.183-10.251,10.271c-0.552,2.217-2.03,4.078-4.069,5.117
			c-5.304,2.75-7.951,9.895-3.124,16.602c0.636,0.795,1.45,1.432,2.376,1.834c1.702,0.852,3.04,2.301,3.741,4.068
			c1.226,2.994,3.742,5.266,6.838,6.182c3.096,0.918,6.454,0.385,9.111-1.457c1.813-1.273,4.086-1.666,6.229-1.096
			c3.629,0.992,7.512,0.02,10.261-2.563c2.741-2.572,3.958-6.389,3.208-10.074c-0.346-1.814-0.008-3.703,0.937-5.283
			C273.137,249.256,273.642,246.693,273.268,244.176L273.268,244.176z"/>
		<g>
			<path fill="#FFFFFF" d="M269.104,252.063c-0.196-0.086-0.429-0.039-0.579,0.111c-0.094,0.104-0.149,0.234-0.149,0.373
				c0,0.066,0.01,0.143,0.037,0.197c0.028,0.074,0.064,0.121,0.112,0.178c0.047,0.047,0.112,0.084,0.178,0.113
				c0.065,0.027,0.13,0.047,0.196,0.047l0,0c0.141,0,0.28-0.057,0.374-0.15c0.047-0.047,0.075-0.113,0.112-0.168
				c0.028-0.066,0.038-0.131,0.038-0.197C269.434,252.332,269.302,252.137,269.104,252.063z"/>
			<path fill="#FFFFFF" d="M267.842,254.137h-3.17c-0.29,0-0.532,0.236-0.532,0.535c0,0.289,0.232,0.523,0.532,0.523h3.17
				c0.29,0,0.534-0.244,0.534-0.523C268.376,254.373,268.142,254.137,267.842,254.137z"/>
			<path fill="#FFFFFF" d="M263.082,253.082h3.704c0.289,0,0.532-0.236,0.532-0.525s-0.233-0.533-0.532-0.533h-3.704
				c-0.29,0-0.525,0.244-0.525,0.533C262.557,252.838,262.792,253.082,263.082,253.082z"/>
			<path fill="#FFFFFF" d="M263.082,254.662c0-0.289-0.244-0.533-0.525-0.533h-1.056c-0.291,0-0.533,0.234-0.533,0.533
				c0,0.289,0.233,0.523,0.533,0.523h1.056C262.847,255.195,263.082,254.951,263.082,254.662z"/>
			<path fill="#FFFFFF" d="M266.786,256.252h-4.238c-0.29,0-0.533,0.232-0.533,0.533c0,0.289,0.234,0.523,0.533,0.523h4.238
				c0.289,0,0.532-0.244,0.532-0.523C267.318,256.484,267.085,256.252,266.786,256.252z"/>
		</g>
		<g>
			<path fill="#FFFFFF" d="M234.852,251.48c-0.056,0.029-0.113,0.066-0.159,0.113c-0.056,0.047-0.094,0.104-0.112,0.168
				c-0.056,0.121-0.056,0.262,0,0.383c0.028,0.057,0.065,0.123,0.112,0.16c0.093,0.104,0.215,0.158,0.355,0.158v0.01
				c0.065,0,0.131-0.018,0.196-0.047c0.056-0.027,0.121-0.064,0.159-0.111c0.047-0.047,0.084-0.094,0.113-0.17
				c0.019-0.064,0.037-0.121,0.037-0.195c0-0.131-0.056-0.262-0.15-0.365C235.263,251.453,235.039,251.406,234.852,251.48z"/>
			<path fill="#FFFFFF" d="M235.563,249.405h-1.029c-0.281,0-0.514,0.225-0.514,0.515c0,0.281,0.233,0.505,0.505,0.505h1.029l0,0
				c0.281,0,0.505-0.233,0.505-0.505C236.067,249.63,235.844,249.405,235.563,249.405z"/>
			<path fill="#FFFFFF" d="M237.087,247.357h-5.107c-0.28,0-0.515,0.233-0.515,0.514s0.225,0.505,0.515,0.505h5.107
				c0.28,0,0.514-0.225,0.514-0.505S237.368,247.357,237.087,247.357z"/>
			<path fill="#FFFFFF" d="M230.446,250.425h2.04c0.28,0,0.514-0.233,0.514-0.505c0-0.281-0.224-0.515-0.514-0.515h-2.04
				c-0.28,0-0.505,0.225-0.505,0.515C229.941,250.191,230.175,250.425,230.446,250.425z"/>
			<path fill="#FFFFFF" d="M233.009,251.445h-4.088c-0.281,0-0.514,0.223-0.514,0.514c0,0.279,0.224,0.514,0.514,0.514h4.088
				c0.28,0,0.505-0.225,0.505-0.514C233.515,251.668,233.28,251.445,233.009,251.445z"/>
		</g>
	</g>
	<g display="inline">
		<path fill="#FF99B1" d="M244.336,236.319c-2.329,0-4.321,0.758-5.752,2.189c-1.431,1.431-2.189,3.414-2.189,5.752v11.261
			c0,2.377,0.786,4.396,2.282,5.857c1.45,1.41,3.433,2.15,5.725,2.15h11.205c2.338,0,4.331-0.748,5.762-2.15
			c1.469-1.422,2.245-3.434,2.245-5.791v-11.327c0-2.301-0.758-4.275-2.197-5.715l0,0c-1.441-1.459-3.434-2.227-5.753-2.227H244.336
			z"/>
		<path fill="#2866AE" d="M262.024,237.947c-1.6-1.618-3.799-2.479-6.352-2.479h-11.327c-2.563,0-4.751,0.842-6.352,2.441
			c-1.599,1.59-2.441,3.788-2.441,6.351v11.271c0,2.609,0.87,4.836,2.535,6.455c1.618,1.57,3.798,2.393,6.314,2.393h11.195
			c2.573,0,4.771-0.832,6.371-2.393c1.636-1.592,2.497-3.799,2.497-6.398v-11.327C264.457,241.735,263.614,239.556,262.024,237.947z
			 M263.614,255.588c0,2.357-0.776,4.369-2.245,5.791c-1.431,1.402-3.424,2.15-5.762,2.15h-11.215c-2.292,0-4.275-0.74-5.725-2.15
			c-1.497-1.461-2.282-3.48-2.282-5.857v-11.261c0-2.338,0.758-4.321,2.189-5.752c1.431-1.432,3.423-2.189,5.752-2.189h11.327
			c2.319,0,4.312,0.767,5.753,2.227c1.439,1.44,2.197,3.414,2.197,5.715v11.327H263.614z"/>
		<path fill="#FFFFFF" d="M255.478,249.835c-0.01,3.02-2.461,5.471-5.473,5.471c-3.021,0-5.472-2.451-5.472-5.471
			c0-3.021,2.451-5.472,5.472-5.472C253.026,244.364,255.478,246.823,255.478,249.835z"/>
		<path fill="#FFFFFF" d="M257.282,241.09c-0.86,0-1.563,0.702-1.563,1.562s0.702,1.562,1.563,1.562s1.562-0.702,1.562-1.562
			S258.134,241.09,257.282,241.09z"/>
		<path fill="#2866AE" d="M250.005,243.419c-3.536,0-6.408,2.872-6.408,6.407c0,3.535,2.872,6.406,6.408,6.406
			c3.526,0,6.397-2.871,6.407-6.406C256.412,246.3,253.531,243.419,250.005,243.419z M250.005,255.316
			c-3.021,0-5.472-2.451-5.472-5.471c0-3.022,2.451-5.472,5.472-5.472c3.021,0,5.473,2.45,5.473,5.472
			C255.468,252.855,253.007,255.316,250.005,255.316z"/>
		<path fill="#2866AE" d="M257.282,240.258c-1.328,0-2.404,1.075-2.404,2.403c0,1.329,1.076,2.404,2.404,2.404
			s2.403-1.076,2.403-2.404C259.686,241.333,258.61,240.258,257.282,240.258z M257.282,244.214c-0.86,0-1.563-0.702-1.563-1.562
			s0.702-1.562,1.563-1.562s1.562,0.702,1.562,1.562S258.143,244.214,257.282,244.214z"/>
	</g>
</g>
<g id="Layer_2">
	<g opacity="0.33">
		<path id="Shape_1_" fill="#96D7FF" d="M269.453,245.439c-0.566-3.856-3.476-6.952-7.3-7.759c-1.321-0.279-2.515-0.993-3.383-2.034
			c-2.803-3.305-7.224-4.755-11.438-3.755c-4.212,1.009-7.495,4.299-8.503,8.52c-0.458,1.838-1.684,3.383-3.375,4.244
			c-4.4,2.281-6.595,8.208-2.591,13.771c0.527,0.66,1.202,1.189,1.97,1.521c1.412,0.707,2.521,1.908,3.104,3.375
			c1.017,2.484,3.104,4.367,5.671,5.129c2.569,0.76,5.354,0.316,7.558-1.211c1.506-1.055,3.391-1.381,5.167-0.906
			c3.011,0.82,6.23,0.014,8.513-2.127c2.272-2.135,3.28-5.299,2.661-8.357c-0.288-1.504-0.008-3.07,0.775-4.383
			C269.345,249.651,269.764,247.525,269.453,245.439L269.453,245.439z"/>
		<g>
			<path fill="#FFFFFF" d="M265.999,251.979c-0.161-0.07-0.355-0.029-0.479,0.094c-0.078,0.084-0.125,0.195-0.125,0.311
				c0,0.053,0.009,0.115,0.03,0.162c0.024,0.063,0.056,0.102,0.095,0.148c0.038,0.037,0.092,0.068,0.146,0.094
				c0.055,0.021,0.108,0.037,0.163,0.037l0,0c0.116,0,0.232-0.045,0.31-0.123c0.04-0.039,0.063-0.094,0.094-0.141
				c0.023-0.055,0.03-0.109,0.03-0.164C266.271,252.203,266.163,252.041,265.999,251.979z"/>
			<path fill="#FFFFFF" d="M264.954,253.701h-2.631c-0.24,0-0.441,0.195-0.441,0.443c0,0.24,0.193,0.434,0.441,0.434h2.631
				c0.24,0,0.441-0.201,0.441-0.434C265.396,253.896,265.202,253.701,264.954,253.701z"/>
			<path fill="#FFFFFF" d="M261.004,252.824h3.072c0.241,0,0.442-0.193,0.442-0.434s-0.194-0.441-0.442-0.441h-3.072
				c-0.241,0-0.436,0.201-0.436,0.441C260.568,252.623,260.763,252.824,261.004,252.824z"/>
			<path fill="#FFFFFF" d="M261.004,254.135c0-0.238-0.202-0.441-0.436-0.441h-0.875c-0.241,0-0.443,0.195-0.443,0.441
				c0,0.242,0.195,0.436,0.443,0.436h0.875C260.81,254.578,261.004,254.377,261.004,254.135z"/>
			<path fill="#FFFFFF" d="M264.076,255.455h-3.516c-0.239,0-0.441,0.193-0.441,0.441c0,0.24,0.192,0.436,0.441,0.436h3.516
				c0.241,0,0.442-0.203,0.442-0.436C264.519,255.648,264.324,255.455,264.076,255.455z"/>
		</g>
		<g>
			<path fill="#FFFFFF" d="M237.588,251.498c-0.046,0.023-0.093,0.055-0.131,0.092c-0.046,0.041-0.078,0.088-0.093,0.141
				c-0.046,0.102-0.046,0.219,0,0.318c0.023,0.047,0.055,0.102,0.093,0.131c0.078,0.088,0.179,0.133,0.295,0.133v0.008
				c0.054,0,0.108-0.016,0.164-0.039c0.046-0.023,0.1-0.055,0.131-0.094c0.039-0.037,0.069-0.078,0.093-0.139
				c0.016-0.055,0.031-0.1,0.031-0.162c0-0.107-0.046-0.219-0.124-0.303C237.93,251.475,237.743,251.436,237.588,251.498z"/>
			<path fill="#FFFFFF" d="M238.178,249.776h-0.854c-0.232,0-0.427,0.186-0.427,0.427c0,0.233,0.194,0.418,0.42,0.418h0.853l0,0
				c0.232,0,0.419-0.194,0.419-0.418C238.597,249.962,238.411,249.776,238.178,249.776z"/>
			<path fill="#FFFFFF" d="M239.443,248.076h-4.235c-0.233,0-0.427,0.194-0.427,0.427c0,0.232,0.186,0.418,0.427,0.418h4.235
				c0.233,0,0.427-0.186,0.427-0.418C239.87,248.27,239.676,248.076,239.443,248.076z"/>
			<path fill="#FFFFFF" d="M233.935,250.621h1.691c0.232,0,0.426-0.194,0.426-0.418c0-0.233-0.186-0.427-0.426-0.427h-1.691
				c-0.233,0-0.419,0.186-0.419,0.427C233.516,250.427,233.709,250.621,233.935,250.621z"/>
			<path fill="#FFFFFF" d="M236.06,251.467h-3.391c-0.233,0-0.427,0.186-0.427,0.426c0,0.234,0.186,0.428,0.427,0.428h3.391
				c0.232,0,0.419-0.186,0.419-0.428C236.479,251.652,236.285,251.467,236.06,251.467z"/>
		</g>
	</g>
	<g>
		<path fill="#AEB6BA" d="M240.327,258.217l-0.007-0.031c-0.156-0.465-0.512-1.676-0.465-2.824c0.077-1.908,0.69-3.135,0.946-3.582
			c0.481-0.855,1.102-1.616,1.839-2.252c0.652-0.543,1.382-0.977,2.181-1.288h0.007c0.745-0.31,1.529-0.497,2.328-0.551v2.67
			c-0.668-0.124-1.948-0.203-3.058,0.613l-0.008,0.008c-0.961,0.744-1.637,1.553-1.815,3.104v0.039
			c-0.008,1.279,0.388,2.352,1.148,3.127c0.179,0.186,0.373,0.348,0.59,0.504l0.008,0.008c0.139,0.092,0.271,0.17,0.403,0.24
			c0.024,0.023,0.039,0.053,0.062,0.078c0.226,0.277,0.497,0.533,0.799,0.744l0.007,0.008c0.156,0.1,0.303,0.195,0.458,0.271h0.008
			c0.039,0.018,0.071,0.037,0.109,0.055c0.015,0.008,0.038,0.021,0.054,0.029c0.008,0,0.015,0.008,0.023,0.008
			c0.567,0.279,1.118,0.422,1.691,0.422c0.559,0,1.141-0.135,1.792-0.398c0.963-0.387,1.768-1.264,2.149-2.35
			c0.218-0.637,0.218-1.273,0.218-1.885v-16.853h2.583c0.179,0.792,0.582,1.863,1.513,2.925l0.007,0.008
			c0.404,0.434,0.862,0.821,1.353,1.148c0.24,0.256,0.952,0.969,1.877,1.428c0.426,0.216,0.867,0.388,1.326,0.511v2.825
			c-0.527-0.039-1.505-0.132-2.281-0.341c-1.544-0.411-2.561-1.047-2.568-1.047c-0.224-0.147-0.736-0.489-0.798-0.52l-0.521-0.303
			v0.008l-0.016-0.008v9.731c0,0.533-0.14,1.736-0.521,2.715c-0.466,1.217-1.155,2.047-1.388,2.318
			c-0.023,0.023-0.04,0.047-0.054,0.063c0,0-0.039,0.047-0.103,0.115c-0.293,0.326-1.178,1.203-2.521,1.84
			c-1.389,0.652-2.614,0.691-3.135,0.707c-0.046,0.006-0.093,0.006-0.124,0.006c-0.023,0-2.305,0.078-4.353-1.303h-0.007
			c-0.202-0.209-0.403-0.436-0.59-0.689c-0.357-0.457-0.636-0.947-0.83-1.35C240.475,258.582,240.367,258.318,240.327,258.217z"/>
		<path fill="#96D7FF" d="M255.551,238.129c0,0.381,0.061,0.986,0.301,1.715c-0.395-0.628-0.619-1.227-0.744-1.715H255.551z"/>
		<path fill="#96D7FF" d="M248.109,258.146c0.962-0.387,1.77-1.264,2.15-2.352c0.225-0.627,0.225-1.256,0.225-1.861v-16.89h3.771
			c0,0.109,0.007,0.241,0.023,0.388h-3.189h-0.008v17.581c0,0.566,0,1.109-0.179,1.629c-0.311,0.895-0.97,1.615-1.753,1.934
			c-1.133,0.451-2.001,0.451-2.964-0.039C246.791,258.559,247.419,258.426,248.109,258.146z"/>
		<path fill="#96D7FF" d="M248.466,247.696v3.763c-0.675-0.123-1.955-0.201-3.064,0.613l-0.008,0.008
			c-0.961,0.744-1.636,1.551-1.815,3.104v0.039c0,0.465,0.055,0.906,0.155,1.311c-0.193-0.24-0.349-0.512-0.473-0.807
			c0-0.008-0.007-0.016-0.007-0.023c-0.016-0.045-0.039-0.094-0.055-0.146c-0.008-0.023-0.016-0.039-0.023-0.064
			c-0.016-0.037-0.023-0.076-0.031-0.115c-0.015-0.063-0.03-0.115-0.046-0.178c0-0.008-0.007-0.023-0.007-0.031
			c-0.047-0.203-0.078-0.412-0.093-0.637c0-0.008,0-0.023,0-0.031c0-0.047-0.007-0.102-0.007-0.146c0-0.063,0-0.125,0-0.195
			c0.007-0.061,0.015-0.115,0.022-0.178c0-0.016,0-0.023,0.008-0.039c0-0.008,0-0.008,0-0.014c0.162-1.018,0.574-1.66,1.513-2.383
			c0.898-0.652,1.978-0.582,2.529-0.488c0.21,0.037,0.341,0.078,0.349,0.084l0.458,0.154l0,0h0.008v-3.629v-0.008
			C248.079,247.666,248.28,247.673,248.466,247.696z"/>
		<path fill="#96D7FF" d="M239.039,257.16l-0.023-0.053c-0.155-0.475-0.513-1.684-0.465-2.834c0.077-1.898,0.69-3.133,0.946-3.582
			c0.481-0.862,1.103-1.622,1.839-2.258c0.652-0.543,1.382-0.978,2.181-1.287h0.008c0.497-0.202,1.009-0.357,1.537-0.451
			c0.698-0.117,1.404-0.139,2.11-0.069v0.349c-0.9,0.054-1.778,0.256-2.608,0.605c-0.869,0.334-1.667,0.807-2.381,1.413
			c-0.039,0.03-0.07,0.061-0.109,0.1c-0.76,0.675-1.396,1.458-1.893,2.343c-0.28,0.488-0.947,1.846-1.033,3.902
			c-0.046,1.195,0.279,2.406,0.489,3.041l0.015,0.047c0,0,0.008,0.008,0.008,0.016C239.365,257.938,239.147,257.455,239.039,257.16z
			"/>
		<path fill="#FF99B1" d="M255.565,255.588c0,0.525-0.139,1.729-0.521,2.707c-0.466,1.217-1.154,2.049-1.388,2.32
			c-0.023,0.023-0.039,0.045-0.054,0.061c-0.01,0.016-0.971,1.18-2.631,1.963c-1.39,0.652-2.615,0.691-3.135,0.707
			c-0.047,0.006-0.094,0.006-0.124,0.006c-0.016,0-1.327,0.041-2.848-0.533c0.209,0.037,0.403,0.068,0.582,0.084
			c0.016,0,0.038,0.008,0.054,0.008c0.008,0,0.023,0,0.03,0c0.528,0.063,0.87,0.047,0.916,0.055c0.032-0.008,0.07-0.008,0.117-0.008
			c0.512-0.016,1.885-0.063,3.406-0.775c1.809-0.854,2.833-2.104,2.878-2.158c0.016-0.014,0.032-0.037,0.055-0.061
			c0.248-0.303,1.001-1.203,1.505-2.516c0.411-1.07,0.566-2.389,0.566-2.963v-8.479c0.077,0.054,0.163,0.109,0.24,0.163
			c0.008,0.008,0.132,0.085,0.35,0.202V255.588z"/>
		<path fill="#FF99B1" d="M261.749,248.053c-0.52-0.04-1.514-0.132-2.297-0.342c-0.325-0.085-0.629-0.179-0.898-0.278
			c1.063,0.209,2.179,0.255,2.233,0.255l0.365,0.016v-3.383h0.007h0.017v-0.023c0.201,0.039,0.395,0.054,0.573,0.063V248.053z"/>
		<path fill="#2866AE" d="M262.067,243.669c-0.226,0.016-0.543,0-0.892-0.061v-1.072l-0.389,0.04
			c-0.441,0.047-1.505-0.085-2.623-0.644c-0.162-0.086-0.326-0.179-0.481-0.28l0,0c-1.613-1.885-1.427-3.809-1.427-3.824
			l0.046-0.388h-1.317c-0.047-0.434-0.024-0.707-0.024-0.707l0.047-0.387h-5.214v17.587c0,0.574,0,1.109-0.178,1.629
			c-0.318,0.893-0.97,1.615-1.754,1.934c-1.148,0.457-2.001,0.449-2.948-0.023c-0.419-0.6-0.621-1.344-0.621-2.221
			c0.139-1.146,0.543-1.83,1.543-2.605c1.256-0.924,2.871-0.412,2.887-0.404l0.457,0.154v-5.297l-0.294-0.047
			c-0.333-0.054-0.675-0.085-1.009-0.085v-0.017v-0.931l-0.302-0.046c-0.877-0.124-1.762-0.117-2.63,0.039
			c-0.575,0.101-1.141,0.264-1.677,0.489c-0.869,0.333-1.668,0.806-2.381,1.412c-0.807,0.691-1.475,1.512-1.994,2.436
			c-0.349,0.604-0.955,1.918-1.032,3.895c-0.046,1.234,0.311,2.498,0.489,3.033v0.016l0.016,0.047
			c0.047,0.133,0.481,1.297,1.272,2.305c0.566,0.705,1.226,1.326,1.963,1.846l0,0l0.016,0.016l0.023,0.018
			c0.403,0.402,0.846,0.775,1.318,1.1c1.979,1.336,4.113,1.428,4.656,1.428c0.07,0,0.116,0,0.131,0.008
			c0.032-0.008,0.07-0.008,0.117-0.008c0.512-0.016,1.886-0.063,3.407-0.775c1.809-0.846,2.833-2.094,2.878-2.148
			c0.008-0.016,0.024-0.033,0.046-0.055c0.24-0.295,1.002-1.195,1.506-2.521c0.419-1.078,0.566-2.367,0.566-2.963v-8.489
			c0.077,0.054,0.162,0.108,0.24,0.163c0.046,0.031,1.11,0.698,2.77,1.141c1.195,0.318,2.754,0.388,2.817,0.388l0.365,0.015v-5.174
			L262.067,243.669z M255.551,238.129c0,0.381,0.061,0.986,0.301,1.715c-0.395-0.628-0.619-1.227-0.744-1.715H255.551z
			 M248.109,258.146c0.962-0.387,1.77-1.264,2.15-2.352c0.225-0.627,0.225-1.256,0.225-1.861v-16.89h3.771
			c0,0.109,0.007,0.241,0.023,0.388h-3.189h-0.008v17.581c0,0.566,0,1.109-0.179,1.629c-0.311,0.895-0.97,1.615-1.753,1.934
			c-1.133,0.451-2.001,0.451-2.964-0.039C246.791,258.559,247.419,258.426,248.109,258.146z M247.869,251.295L247.869,251.295h0.008
			v-3.629v-0.008c0.202,0.008,0.396,0.016,0.589,0.039v3.763c-0.675-0.123-1.955-0.201-3.064,0.613l-0.008,0.008
			c-0.961,0.744-1.636,1.551-1.815,3.104v0.039c0,0.465,0.055,0.906,0.155,1.311c-0.193-0.24-0.349-0.512-0.473-0.807
			c0-0.008-0.007-0.016-0.007-0.023c-0.016-0.045-0.039-0.094-0.055-0.146c-0.008-0.023-0.016-0.039-0.023-0.064
			c-0.016-0.037-0.023-0.076-0.031-0.115c-0.015-0.063-0.03-0.115-0.046-0.178c0-0.008-0.007-0.023-0.007-0.031
			c-0.047-0.203-0.078-0.412-0.093-0.637c0-0.008,0-0.023,0-0.031c0-0.047-0.007-0.102-0.007-0.146c0-0.063,0-0.125,0-0.195
			c0.007-0.061,0.015-0.115,0.022-0.178c0-0.016,0-0.023,0.008-0.039c0-0.008,0-0.008,0-0.014c0.162-1.018,0.574-1.66,1.513-2.383
			c0.898-0.652,1.978-0.582,2.529-0.488c0.21,0.037,0.341,0.078,0.349,0.084L247.869,251.295z M239.039,257.16l-0.023-0.053
			c-0.155-0.475-0.513-1.684-0.465-2.834c0.077-1.898,0.69-3.133,0.946-3.582c0.481-0.862,1.103-1.622,1.839-2.258
			c0.652-0.543,1.382-0.978,2.181-1.287h0.008c0.497-0.202,1.009-0.357,1.537-0.451c0.698-0.117,1.404-0.139,2.11-0.069v0.349
			c-0.9,0.054-1.778,0.256-2.608,0.605c-0.869,0.334-1.667,0.807-2.381,1.413c-0.039,0.03-0.07,0.061-0.109,0.1
			c-0.76,0.675-1.396,1.458-1.893,2.343c-0.28,0.488-0.947,1.846-1.033,3.902c-0.046,1.195,0.279,2.406,0.489,3.041l0.015,0.047
			c0,0,0.008,0.008,0.008,0.016C239.365,257.938,239.147,257.455,239.039,257.16z M255.565,255.588c0,0.525-0.139,1.729-0.521,2.707
			c-0.466,1.217-1.154,2.049-1.388,2.32c-0.023,0.023-0.039,0.045-0.054,0.061c-0.01,0.016-0.971,1.18-2.631,1.963
			c-1.39,0.652-2.615,0.691-3.135,0.707c-0.047,0.006-0.094,0.006-0.124,0.006c-0.016,0-1.327,0.041-2.848-0.533
			c0.209,0.037,0.403,0.068,0.582,0.084c0.016,0,0.038,0.008,0.054,0.008c0.008,0,0.023,0,0.03,0
			c0.528,0.063,0.87,0.047,0.916,0.055c0.032-0.008,0.07-0.008,0.117-0.008c0.512-0.016,1.885-0.063,3.406-0.775
			c1.809-0.854,2.833-2.104,2.878-2.158c0.016-0.014,0.032-0.037,0.055-0.061c0.248-0.303,1.001-1.203,1.505-2.516
			c0.411-1.07,0.566-2.389,0.566-2.963v-8.479c0.077,0.054,0.163,0.109,0.24,0.163c0.008,0.008,0.132,0.085,0.35,0.202V255.588z
			 M255.596,245.586c-0.224-0.147-0.735-0.489-0.799-0.52l-0.519-0.303v0.008l-0.017-0.008v9.731c0,0.533-0.14,1.736-0.521,2.715
			c-0.465,1.217-1.154,2.047-1.388,2.318c-0.023,0.023-0.039,0.047-0.055,0.063c0,0-0.038,0.047-0.101,0.115
			c-0.295,0.326-1.18,1.203-2.521,1.84c-1.389,0.652-2.615,0.691-3.135,0.707c-0.046,0.006-0.093,0.006-0.124,0.006
			c-0.023,0-2.305,0.078-4.353-1.303h-0.007c-0.203-0.209-0.404-0.436-0.59-0.689c-0.357-0.457-0.637-0.947-0.83-1.35
			c-0.164-0.334-0.271-0.598-0.312-0.699l-0.007-0.031c-0.156-0.465-0.512-1.676-0.465-2.824c0.077-1.908,0.69-3.135,0.946-3.582
			c0.481-0.855,1.102-1.616,1.839-2.252c0.652-0.543,1.382-0.977,2.181-1.288h0.007c0.745-0.31,1.529-0.497,2.328-0.551v2.67
			c-0.668-0.124-1.948-0.203-3.058,0.613l-0.008,0.008c-0.961,0.744-1.637,1.553-1.815,3.104v0.039
			c-0.008,1.279,0.388,2.352,1.148,3.127c0.179,0.186,0.373,0.348,0.59,0.504l0.008,0.008c0.139,0.092,0.271,0.17,0.403,0.24
			c0.024,0.023,0.039,0.053,0.062,0.078c0.226,0.277,0.497,0.533,0.799,0.744l0.007,0.008c0.156,0.1,0.303,0.195,0.458,0.271h0.008
			c0.039,0.018,0.071,0.037,0.109,0.055c0.015,0.008,0.038,0.021,0.054,0.029c0.008,0,0.015,0.008,0.023,0.008
			c0.567,0.279,1.118,0.422,1.691,0.422c0.559,0,1.141-0.135,1.792-0.398c0.963-0.387,1.768-1.264,2.149-2.35
			c0.218-0.637,0.218-1.273,0.218-1.885v-16.853h2.583c0.179,0.792,0.582,1.863,1.513,2.925l0.007,0.008
			c0.404,0.434,0.862,0.821,1.353,1.148c0.24,0.256,0.952,0.969,1.877,1.428c0.426,0.216,0.867,0.388,1.326,0.511v2.825
			c-0.527-0.039-1.505-0.132-2.281-0.341C256.62,246.222,255.604,245.586,255.596,245.586z M261.749,248.053
			c-0.52-0.04-1.514-0.132-2.297-0.342c-0.325-0.085-0.629-0.179-0.898-0.278c1.063,0.209,2.179,0.255,2.233,0.255l0.365,0.016
			v-3.383h0.007h0.017v-0.023c0.201,0.039,0.395,0.054,0.573,0.063V248.053z"/>
	</g>
</g>
</svg>
